<?xml version="1.0" standalone="no"?>
<!DOCTYPE svg PUBLIC "-//W3C//DTD SVG 20010904//EN"
 "http://www.w3.org/TR/2001/REC-SVG-20010904/DTD/svg10.dtd">
<svg version="1.0" xmlns="http://www.w3.org/2000/svg"
 width="4096.000000pt" height="4096.000000pt" viewBox="0 0 4096.000000 4096.000000"
 preserveAspectRatio="xMidYMid meet">

<g transform="translate(0.000000,4096.000000) scale(0.100000,-0.100000)"
fill="#000000" stroke="none">
<path d="M7375 40949 c-573 -29 -1196 -135 -1765 -299 -956 -276 -1913 -773
-2685 -1394 -778 -625 -1409 -1363 -1905 -2226 -103 -180 -304 -586 -393 -795
-366 -862 -565 -1726 -617 -2675 -14 -256 -14 -25904 0 -26160 53 -985 272
-1900 664 -2783 894 -2010 2604 -3550 4706 -4235 591 -193 1192 -310 1865
-364 236 -19 26234 -19 26470 0 942 75 1794 287 2605 647 2213 984 3823 2897
4410 5243 117 470 193 985 220 1497 14 262 14 25888 0 26150 -51 981 -271
1903 -665 2790 -728 1640 -2013 2983 -3626 3791 -969 485 -2015 759 -3109 814
-240 12 -25938 11 -26175 -1z m9110 -5929 c38 -11 96 -20 128 -20 38 0 71 -7
97 -20 22 -11 56 -20 77 -20 21 0 51 -9 68 -20 17 -11 44 -20 60 -20 17 0 44
-9 60 -20 17 -11 38 -20 48 -20 11 0 30 -9 44 -20 14 -11 36 -20 48 -20 12 0
30 -9 40 -20 10 -11 28 -20 40 -20 13 0 28 -6 34 -14 7 -8 36 -26 66 -42 30
-15 62 -35 71 -46 10 -10 23 -18 31 -18 7 0 47 -27 89 -60 41 -33 80 -60 85
-60 15 0 331 -321 364 -370 16 -25 47 -67 67 -93 21 -27 38 -54 38 -60 0 -6 9
-20 19 -31 11 -12 30 -42 44 -67 13 -26 31 -57 40 -70 10 -13 17 -30 17 -37 0
-8 9 -25 20 -39 11 -14 20 -35 20 -47 0 -11 9 -34 20 -51 11 -16 20 -39 20
-50 0 -11 9 -33 20 -50 11 -16 20 -46 20 -65 0 -19 9 -46 20 -60 13 -17 20
-41 20 -72 0 -26 10 -71 21 -100 20 -50 22 -72 23 -350 l1 -296 24 -26 c14
-14 32 -26 41 -26 10 0 28 -8 41 -18 13 -10 31 -22 39 -25 8 -4 33 -18 55 -32
22 -14 54 -32 71 -39 17 -8 36 -22 44 -30 7 -9 18 -16 24 -16 6 0 38 -18 71
-40 33 -22 65 -40 71 -40 6 0 19 -9 29 -20 10 -11 23 -20 29 -20 6 0 38 -18
71 -40 33 -22 64 -40 69 -40 6 0 19 -9 30 -19 12 -11 42 -30 68 -44 25 -13 52
-30 60 -36 23 -20 89 -61 97 -61 4 0 16 -9 26 -20 10 -11 23 -20 30 -20 6 0
35 -17 63 -37 55 -40 122 -85 176 -118 18 -11 53 -33 77 -50 24 -16 51 -34 60
-40 9 -5 36 -23 60 -40 24 -16 51 -34 61 -40 9 -5 37 -25 63 -42 25 -18 48
-33 51 -33 2 0 27 -18 55 -40 28 -22 55 -40 61 -40 5 0 30 -17 55 -37 26 -21
67 -51 93 -68 90 -57 133 -87 187 -131 29 -24 59 -44 65 -44 5 0 31 -17 57
-38 25 -21 60 -46 76 -57 17 -10 50 -35 75 -56 25 -20 59 -44 76 -53 18 -8 45
-28 60 -44 16 -16 49 -41 74 -57 25 -16 75 -53 111 -82 36 -29 69 -53 73 -53
4 0 40 -26 79 -58 40 -32 91 -71 115 -86 23 -16 42 -32 42 -36 0 -4 19 -20 43
-36 52 -35 218 -165 313 -245 40 -32 94 -76 120 -96 27 -20 87 -69 134 -108
47 -39 102 -83 123 -99 21 -15 51 -41 67 -56 16 -16 62 -54 102 -86 40 -32
109 -90 153 -129 44 -39 120 -104 168 -144 48 -40 100 -84 115 -98 15 -14 89
-79 165 -145 76 -66 159 -141 185 -167 26 -25 110 -102 186 -171 206 -184 352
-325 851 -826 248 -247 538 -547 646 -665 108 -117 227 -245 264 -284 37 -38
118 -128 180 -200 61 -71 140 -159 174 -195 34 -36 86 -96 116 -135 30 -38 77
-95 105 -125 29 -30 73 -81 98 -114 26 -32 81 -97 122 -145 42 -47 95 -112
118 -143 23 -32 56 -72 73 -89 16 -17 64 -74 107 -127 42 -53 91 -112 109
-131 18 -19 49 -57 67 -85 19 -28 53 -71 76 -96 23 -25 57 -67 76 -95 18 -27
52 -70 74 -95 23 -25 58 -70 79 -101 21 -30 55 -73 75 -95 20 -21 36 -42 36
-46 0 -4 28 -42 63 -85 34 -43 82 -106 106 -140 24 -35 47 -63 50 -63 3 0 19
-21 36 -48 16 -26 56 -82 90 -124 98 -125 139 -180 160 -213 11 -18 39 -56 63
-86 74 -95 139 -184 155 -214 8 -17 29 -45 46 -64 17 -19 31 -38 31 -43 0 -4
9 -17 20 -28 20 -20 34 -20 4158 -20 4068 -1 4138 -1 4177 -20 22 -11 54 -20
70 -20 17 0 44 -9 60 -20 17 -11 40 -20 51 -20 12 0 32 -8 45 -18 13 -10 35
-23 49 -30 52 -26 73 -41 151 -108 104 -89 204 -215 249 -314 7 -14 20 -42 31
-62 10 -20 19 -50 19 -65 0 -16 8 -40 18 -53 25 -37 31 -127 44 -695 9 -403 9
-696 -2 -1400 -8 -489 -16 -1286 -19 -1770 -6 -813 -7 -882 -23 -912 -10 -18
-18 -50 -18 -71 0 -24 -8 -49 -20 -65 -11 -14 -20 -32 -20 -41 0 -17 -43 -102
-64 -126 -8 -8 -17 -26 -21 -39 -9 -31 -237 -257 -267 -266 -13 -4 -30 -13
-38 -21 -24 -21 -109 -64 -126 -64 -9 0 -27 -9 -41 -20 -14 -11 -38 -20 -54
-20 -16 0 -51 -9 -79 -20 -50 -20 -74 -20 -2936 -20 -2578 0 -2885 -2 -2890
-15 -4 -9 3 -73 15 -143 12 -75 21 -174 22 -242 0 -63 7 -151 15 -195 13 -71
28 -578 33 -1147 l1 -98 50 0 c31 0 66 8 90 20 23 12 59 20 87 20 31 0 59 7
78 20 21 14 47 20 90 20 38 1 75 8 100 20 23 11 62 19 91 20 30 0 71 9 95 20
27 12 66 20 100 20 35 0 74 8 100 20 30 13 66 20 111 20 43 0 85 7 118 20 32
13 74 20 114 20 36 0 91 9 126 20 39 12 90 20 135 20 45 0 98 8 137 20 41 13
91 20 145 20 47 0 117 9 165 20 53 13 119 20 183 20 62 0 132 8 185 20 59 13
123 20 207 20 67 0 202 9 300 21 165 19 219 20 753 16 464 -4 594 -8 675 -21
55 -8 156 -16 225 -16 91 0 145 -6 200 -20 49 -13 108 -20 170 -20 70 0 111
-5 153 -20 37 -13 83 -20 134 -20 56 -1 89 -6 118 -20 25 -12 62 -19 97 -20
33 0 79 -9 108 -20 28 -11 74 -20 103 -20 30 -1 69 -9 92 -20 22 -11 59 -19
83 -20 23 0 60 -9 82 -20 22 -11 59 -20 82 -20 26 0 55 -8 73 -20 17 -11 47
-20 70 -20 23 0 53 -9 70 -20 17 -11 46 -20 65 -20 19 0 49 -9 65 -20 17 -11
46 -20 66 -20 21 0 47 -8 62 -20 14 -11 40 -20 60 -20 19 0 45 -9 60 -20 14
-11 38 -20 54 -20 15 0 42 -9 58 -20 17 -11 41 -20 53 -20 13 0 35 -9 49 -20
14 -11 39 -20 55 -20 17 0 41 -9 55 -20 14 -11 35 -20 47 -20 11 0 35 -9 51
-20 17 -11 38 -20 48 -20 11 0 30 -9 44 -20 14 -11 35 -20 45 -20 11 0 31 -9
45 -20 14 -11 31 -20 39 -20 7 0 48 -18 91 -39 43 -22 125 -62 183 -90 134
-66 230 -118 250 -136 9 -8 23 -15 32 -15 8 0 25 -9 38 -20 13 -11 28 -20 34
-20 6 0 38 -18 71 -40 33 -22 65 -40 71 -40 6 0 19 -9 29 -20 10 -11 23 -20
28 -20 5 0 35 -17 66 -38 31 -20 63 -41 73 -47 9 -5 37 -25 63 -42 25 -18 49
-33 52 -33 3 0 26 -17 52 -38 25 -22 67 -51 94 -66 26 -16 47 -32 47 -36 0 -4
25 -25 55 -45 31 -20 84 -60 118 -89 34 -28 89 -73 123 -98 159 -121 696 -660
813 -816 21 -27 62 -79 92 -115 30 -36 72 -91 94 -121 22 -31 59 -82 82 -113
23 -32 58 -85 79 -118 20 -33 39 -62 43 -65 4 -3 22 -30 39 -61 18 -31 39 -62
47 -69 8 -7 15 -20 15 -30 0 -10 7 -23 16 -30 8 -8 22 -27 29 -44 8 -17 42
-80 75 -141 33 -60 65 -121 71 -135 6 -14 15 -32 20 -40 5 -8 14 -26 20 -40
34 -79 48 -110 68 -150 11 -25 21 -53 21 -63 0 -11 9 -30 20 -44 11 -14 20
-38 20 -53 0 -15 9 -39 20 -53 11 -14 20 -38 20 -54 0 -15 9 -41 20 -58 11
-16 20 -43 20 -60 0 -16 9 -43 20 -60 11 -16 20 -46 20 -65 0 -19 9 -52 20
-73 12 -21 20 -56 20 -82 0 -26 9 -63 20 -85 13 -25 20 -59 20 -95 0 -31 7
-72 16 -93 9 -22 19 -89 24 -167 5 -71 14 -161 19 -200 13 -86 13 -273 0 -380
-5 -44 -12 -125 -15 -180 -3 -56 -14 -125 -25 -158 -10 -31 -19 -80 -19 -107
0 -31 -8 -66 -20 -90 -11 -22 -20 -56 -20 -77 0 -21 -9 -51 -20 -68 -11 -16
-20 -46 -20 -65 0 -19 -9 -46 -20 -60 -11 -14 -20 -37 -20 -52 0 -15 -9 -42
-20 -60 -11 -18 -20 -41 -20 -51 0 -11 -9 -30 -20 -44 -11 -14 -20 -33 -20
-43 0 -9 -9 -27 -20 -40 -11 -13 -20 -31 -20 -40 0 -10 -9 -29 -20 -43 -11
-14 -20 -32 -20 -41 0 -9 -9 -24 -20 -33 -11 -10 -20 -25 -20 -34 0 -9 -8 -27
-18 -40 -11 -13 -32 -46 -47 -74 -16 -27 -32 -52 -35 -55 -4 -3 -21 -31 -39
-63 -18 -31 -36 -57 -41 -57 -4 0 -28 -30 -53 -67 -51 -75 -240 -287 -333
-373 -32 -30 -100 -93 -150 -140 -50 -47 -111 -98 -135 -115 -24 -16 -66 -48
-94 -71 -49 -40 -91 -70 -186 -130 -27 -17 -57 -38 -67 -47 -10 -9 -23 -17
-28 -17 -5 0 -34 -16 -64 -36 -29 -19 -68 -41 -86 -49 -17 -7 -35 -18 -38 -24
-4 -6 -15 -11 -25 -11 -10 0 -26 -9 -36 -20 -10 -11 -28 -20 -40 -20 -12 0
-30 -9 -40 -20 -10 -11 -26 -20 -35 -20 -10 0 -29 -9 -43 -20 -14 -11 -34 -20
-45 -20 -10 0 -27 -9 -37 -20 -10 -11 -30 -20 -45 -20 -15 0 -35 -9 -45 -20
-10 -11 -28 -20 -39 -20 -12 0 -34 -9 -51 -20 -16 -11 -41 -20 -53 -20 -13 0
-35 -9 -49 -20 -14 -11 -36 -20 -49 -20 -13 0 -38 -9 -56 -20 -18 -11 -44 -20
-58 -20 -14 0 -38 -9 -55 -20 -16 -11 -43 -20 -60 -20 -16 0 -43 -9 -60 -20
-16 -11 -45 -20 -63 -20 -18 0 -50 -9 -72 -20 -22 -11 -56 -20 -77 -20 -21 0
-51 -9 -68 -20 -19 -12 -47 -20 -75 -20 -25 0 -65 -9 -89 -20 -24 -11 -60 -20
-81 -20 -20 0 -63 -9 -96 -20 -32 -11 -85 -20 -116 -20 -33 0 -79 -8 -108 -20
-35 -14 -75 -20 -128 -20 -42 0 -115 -9 -162 -20 -78 -18 -125 -19 -590 -19
-465 0 -512 1 -590 19 -47 11 -122 20 -166 20 -60 0 -94 5 -125 20 -29 13 -67
20 -109 20 -43 0 -79 7 -105 20 -22 11 -62 19 -88 20 -27 0 -64 8 -87 20 -22
11 -58 20 -80 20 -22 0 -58 9 -80 20 -22 11 -56 20 -77 20 -21 0 -51 9 -68 20
-16 11 -46 20 -65 20 -19 0 -48 9 -65 20 -16 11 -43 20 -60 20 -16 0 -43 9
-60 20 -16 11 -43 20 -60 20 -16 0 -43 9 -60 20 -16 11 -42 20 -56 20 -15 0
-38 9 -52 20 -14 11 -36 20 -49 20 -12 0 -36 9 -53 20 -16 11 -41 20 -53 20
-13 0 -35 9 -49 20 -14 11 -35 20 -47 20 -11 0 -34 9 -51 20 -16 11 -40 20
-51 20 -12 0 -33 9 -47 20 -14 11 -33 20 -42 20 -9 0 -28 9 -42 20 -14 11 -36
20 -48 20 -12 0 -30 9 -40 20 -10 11 -27 20 -37 20 -11 0 -31 9 -45 20 -14 11
-32 20 -40 20 -8 0 -26 9 -40 20 -14 11 -32 20 -40 20 -8 0 -26 9 -40 20 -14
11 -33 20 -43 20 -9 0 -25 9 -35 20 -10 11 -26 20 -35 20 -10 0 -29 9 -43 20
-14 11 -32 20 -40 20 -7 0 -22 9 -32 20 -10 11 -26 20 -35 20 -10 0 -28 8 -41
18 -13 10 -31 22 -39 26 -8 4 -33 18 -55 31 -22 14 -55 32 -74 41 -19 8 -40
22 -48 30 -8 8 -20 14 -27 14 -7 0 -37 18 -66 40 -29 22 -59 40 -66 40 -6 0
-17 7 -24 15 -7 8 -38 29 -69 47 -31 17 -58 35 -61 38 -3 3 -30 21 -60 39 -53
32 -124 78 -185 121 -16 12 -52 37 -80 55 -50 34 -112 78 -193 135 -23 16 -45
30 -48 30 -4 0 -27 17 -53 38 -25 21 -59 46 -76 57 -16 10 -52 37 -80 60 -27
22 -62 49 -78 58 -15 10 -64 47 -110 82 -175 138 -223 175 -260 199 -21 14
-56 44 -79 66 -23 22 -60 52 -83 67 -22 15 -74 57 -115 93 -41 36 -102 86
-135 110 -33 24 -78 63 -100 85 -22 23 -83 75 -135 116 -52 42 -117 97 -145
123 -27 26 -99 90 -160 141 -60 51 -139 122 -175 156 -36 35 -137 127 -225
205 -88 77 -200 181 -250 229 -49 48 -205 198 -345 334 -270 260 -624 613
-955 952 -257 263 -1891 1914 -2141 2164 -535 534 -1246 1228 -1374 1342 -80
71 -188 170 -240 220 -52 50 -122 113 -155 139 -33 26 -101 84 -150 129 -90
79 -179 155 -319 268 -39 32 -102 84 -141 116 -38 31 -98 76 -132 100 -35 24
-63 47 -63 51 0 4 -33 30 -73 57 -40 28 -89 65 -108 82 -19 18 -57 45 -86 62
-28 16 -53 33 -55 38 -2 5 -28 25 -58 45 -84 56 -150 101 -202 140 -26 20 -51
36 -56 36 -5 0 -33 18 -62 40 -29 22 -59 40 -66 40 -6 0 -17 7 -24 15 -7 8
-25 21 -41 30 -16 8 -42 22 -58 30 -16 9 -34 22 -41 30 -7 8 -20 15 -30 15 -9
0 -25 9 -35 20 -10 11 -23 20 -29 20 -6 0 -38 18 -71 40 -33 22 -67 40 -76 40
-9 0 -24 9 -34 20 -10 11 -26 20 -35 20 -9 0 -25 9 -35 20 -10 11 -26 20 -35
20 -10 0 -29 9 -43 20 -14 11 -30 20 -37 20 -7 0 -23 9 -37 20 -14 11 -32 20
-40 20 -8 0 -26 9 -40 20 -14 11 -33 20 -43 20 -10 0 -29 9 -43 20 -14 11 -34
20 -45 20 -10 0 -27 9 -37 20 -10 11 -28 20 -40 20 -12 0 -34 9 -48 20 -14 11
-35 20 -47 20 -12 0 -33 9 -47 20 -14 11 -37 20 -50 20 -14 0 -36 9 -50 20
-14 11 -39 20 -55 20 -17 0 -41 9 -55 20 -14 11 -39 20 -55 20 -17 0 -41 9
-55 20 -15 11 -41 20 -60 20 -20 0 -46 9 -60 20 -15 12 -41 20 -62 20 -20 0
-53 9 -74 20 -20 11 -55 20 -77 20 -22 0 -57 9 -77 20 -24 13 -57 20 -89 20
-30 0 -70 8 -95 20 -30 13 -66 20 -110 20 -38 0 -93 8 -129 20 -45 15 -90 20
-163 20 -56 0 -188 7 -294 16 -159 12 -220 13 -341 4 -81 -7 -219 -15 -307
-20 -103 -5 -174 -14 -200 -24 -22 -8 -68 -15 -102 -16 -38 0 -82 -8 -113 -20
-28 -11 -71 -20 -96 -20 -25 0 -62 -9 -84 -20 -22 -11 -56 -20 -77 -20 -21 0
-51 -9 -68 -20 -18 -12 -47 -20 -71 -20 -26 0 -51 -7 -67 -20 -14 -11 -38 -20
-54 -20 -15 0 -41 -9 -58 -20 -16 -11 -41 -20 -55 -20 -14 0 -38 -9 -55 -20
-16 -11 -40 -20 -51 -20 -12 0 -33 -9 -47 -20 -14 -11 -35 -20 -47 -20 -12 0
-33 -9 -47 -20 -14 -11 -35 -20 -47 -20 -12 0 -26 -4 -32 -10 -5 -5 -56 -33
-114 -62 -58 -29 -116 -61 -130 -71 -13 -9 -31 -17 -39 -17 -8 0 -22 -7 -32
-16 -10 -9 -31 -23 -48 -32 -72 -40 -146 -86 -149 -94 -2 -5 -18 -15 -36 -22
-18 -7 -48 -27 -67 -43 -19 -16 -52 -40 -74 -53 -22 -13 -60 -40 -85 -61 -25
-20 -62 -48 -83 -62 -22 -15 -73 -58 -115 -96 -43 -38 -106 -92 -142 -121
-121 -98 -388 -383 -527 -563 -85 -110 -110 -145 -136 -185 -16 -25 -35 -51
-43 -59 -8 -9 -26 -37 -40 -64 -13 -27 -29 -49 -34 -49 -6 0 -15 -12 -20 -26
-6 -14 -26 -50 -45 -79 -19 -28 -35 -57 -35 -63 0 -6 -6 -17 -14 -25 -8 -8
-22 -29 -30 -48 -9 -19 -28 -54 -42 -79 -14 -25 -46 -85 -70 -135 -24 -49 -53
-107 -64 -127 -11 -20 -20 -44 -20 -53 0 -9 -9 -28 -20 -42 -11 -14 -20 -35
-20 -47 0 -11 -9 -34 -20 -51 -11 -16 -20 -39 -20 -50 0 -11 -9 -33 -20 -50
-11 -16 -20 -41 -20 -55 0 -14 -9 -38 -20 -55 -11 -16 -20 -46 -20 -65 0 -19
-9 -48 -20 -65 -11 -16 -20 -46 -20 -65 0 -19 -9 -48 -20 -65 -12 -19 -20 -47
-20 -75 0 -25 -9 -65 -20 -89 -11 -24 -20 -62 -20 -86 0 -23 -9 -68 -20 -100
-11 -33 -20 -85 -20 -119 0 -34 -10 -95 -21 -136 -19 -71 -21 -102 -21 -555 0
-453 1 -485 21 -572 12 -51 21 -122 21 -158 0 -41 7 -83 20 -115 11 -28 20
-74 20 -103 0 -35 7 -62 20 -82 12 -18 20 -47 20 -73 0 -23 9 -60 20 -82 11
-22 20 -56 20 -77 0 -21 9 -51 20 -68 11 -16 20 -42 20 -57 0 -15 9 -42 20
-60 11 -18 20 -44 20 -58 0 -14 9 -38 20 -55 11 -16 20 -41 20 -55 0 -14 9
-36 20 -50 11 -14 20 -33 20 -43 0 -10 9 -35 19 -55 11 -20 38 -77 61 -127 23
-49 48 -103 56 -119 34 -67 118 -224 138 -258 11 -20 38 -65 58 -100 21 -36
44 -71 53 -78 8 -7 15 -19 15 -27 0 -7 18 -36 40 -64 22 -28 40 -55 40 -61 0
-6 17 -31 38 -57 21 -25 46 -59 57 -76 10 -16 37 -52 60 -80 22 -27 53 -68 68
-90 14 -22 52 -67 82 -100 31 -33 82 -91 112 -130 155 -193 669 -663 947 -865
64 -47 129 -95 219 -166 29 -22 66 -49 82 -60 17 -10 53 -36 80 -56 28 -21 54
-38 59 -38 4 0 30 -18 56 -40 26 -22 55 -40 63 -40 9 0 18 -4 22 -9 7 -13 93
-71 104 -71 4 0 16 -9 26 -20 10 -11 23 -20 29 -20 6 0 40 -19 76 -42 217
-139 277 -187 317 -256 15 -26 35 -55 45 -65 10 -10 18 -28 18 -40 0 -12 9
-35 20 -52 17 -26 20 -47 20 -158 0 -108 -3 -134 -20 -165 -10 -20 -22 -49
-25 -64 -7 -37 -153 -188 -206 -214 -132 -65 -128 -64 -307 -64 -137 0 -180
-4 -237 -20 -38 -11 -92 -20 -118 -20 -28 0 -64 -8 -87 -20 -23 -12 -59 -20
-87 -20 -31 0 -59 -7 -78 -20 -17 -11 -47 -20 -70 -20 -24 0 -50 -8 -65 -20
-14 -11 -41 -20 -60 -20 -19 0 -48 -9 -65 -20 -16 -11 -41 -20 -53 -20 -13 0
-35 -9 -49 -20 -14 -11 -35 -20 -45 -20 -11 0 -31 -9 -45 -20 -14 -11 -32 -20
-40 -20 -8 0 -45 -18 -83 -40 -38 -22 -73 -40 -78 -40 -5 0 -17 -9 -27 -20
-10 -11 -26 -20 -35 -20 -9 0 -25 -9 -35 -20 -10 -11 -23 -20 -29 -20 -6 0
-38 -21 -71 -46 -33 -25 -82 -60 -110 -79 -74 -50 -280 -250 -271 -263 5 -9
558 -12 2256 -12 1236 0 2256 3 2264 6 9 4 32 38 52 78 20 39 46 87 57 107 26
44 73 125 113 194 15 28 33 55 40 60 6 6 22 31 35 58 12 26 31 55 41 64 10 9
18 22 18 28 0 7 17 34 38 61 20 26 51 69 67 95 65 101 89 135 117 167 16 19
40 52 55 75 14 23 47 67 73 97 26 30 61 76 78 102 18 25 44 59 60 75 15 15 58
66 96 113 186 232 779 825 971 971 39 29 85 68 103 85 18 18 52 45 75 60 23
16 65 47 92 69 28 23 64 50 80 61 17 10 63 45 103 76 40 32 78 58 84 58 5 0
21 10 34 22 12 13 42 34 66 48 84 48 142 85 159 102 10 10 33 24 51 33 18 8
65 35 103 60 39 24 84 51 100 60 17 8 62 33 100 55 39 23 84 47 101 55 17 8
36 21 44 29 7 9 19 16 27 16 8 0 26 9 40 20 14 11 33 20 43 20 9 0 27 9 40 20
13 11 31 20 40 20 9 0 27 9 40 20 13 11 33 20 45 20 12 0 30 9 40 20 10 11 28
20 40 20 12 0 30 9 40 20 10 11 27 20 37 20 11 0 38 10 61 21 101 52 117 59
132 59 9 0 28 9 42 20 14 11 35 20 47 20 11 0 35 9 51 20 17 11 39 20 50 20
11 0 34 9 50 20 17 11 41 20 55 20 14 0 36 9 50 20 14 11 38 20 53 20 16 0 40
9 54 20 14 11 39 20 55 20 17 0 41 9 55 20 14 11 40 20 57 20 17 0 45 9 61 20
17 11 44 20 60 20 17 0 44 9 60 20 17 11 47 20 70 20 23 0 53 9 70 20 17 11
47 20 70 20 22 0 55 9 73 20 18 11 50 20 73 20 22 0 57 9 79 20 22 11 57 20
79 20 21 0 58 9 82 20 26 11 66 20 97 20 33 0 66 7 89 20 24 13 57 20 90 20
29 0 75 9 103 20 28 11 74 20 104 20 32 0 71 8 97 20 30 13 66 20 114 20 41 0
96 9 133 20 41 13 92 20 142 20 44 0 115 9 162 20 121 29 381 29 438 0 22 -11
51 -20 66 -20 14 0 37 -9 51 -20 14 -11 32 -20 40 -20 15 0 86 -54 157 -119
42 -39 114 -131 133 -171 7 -14 17 -32 22 -40 5 -8 14 -26 20 -40 6 -14 15
-32 20 -40 5 -8 19 -40 31 -70 27 -68 57 -133 81 -182 11 -20 19 -46 19 -56 0
-11 9 -31 20 -45 11 -14 20 -33 20 -42 0 -9 9 -34 20 -56 11 -21 29 -57 40
-78 11 -22 20 -49 20 -59 0 -11 9 -31 20 -45 11 -14 20 -33 20 -44 0 -10 9
-33 20 -51 11 -18 20 -41 20 -51 0 -10 9 -30 20 -44 11 -14 20 -35 20 -47 0
-11 9 -39 20 -61 11 -21 29 -57 40 -78 11 -22 20 -47 20 -56 0 -9 9 -34 20
-56 11 -21 29 -57 40 -78 11 -22 20 -48 20 -58 0 -10 9 -31 20 -48 11 -16 20
-38 20 -48 0 -11 9 -30 20 -44 11 -14 20 -35 20 -47 0 -11 9 -34 20 -51 11
-16 20 -40 20 -51 0 -12 9 -33 20 -47 11 -14 20 -33 20 -44 0 -10 9 -31 20
-48 11 -16 20 -40 20 -51 0 -12 9 -33 20 -47 11 -14 20 -33 20 -42 0 -9 8 -33
19 -53 43 -85 61 -128 61 -143 0 -9 9 -28 20 -42 11 -14 20 -35 20 -47 0 -12
9 -33 20 -47 11 -14 20 -35 20 -47 0 -11 9 -34 20 -51 11 -16 20 -39 20 -50 0
-11 9 -31 20 -45 11 -14 20 -34 20 -45 0 -11 9 -33 20 -50 11 -16 20 -40 20
-51 0 -12 9 -33 20 -47 11 -14 20 -35 20 -47 0 -12 9 -33 20 -47 11 -14 20
-35 20 -47 0 -11 9 -34 20 -51 11 -16 20 -37 20 -46 0 -9 9 -28 20 -42 11 -14
20 -35 20 -47 0 -12 9 -33 20 -47 11 -14 20 -35 20 -47 0 -11 9 -34 20 -51 11
-16 20 -40 20 -51 0 -12 9 -33 20 -47 11 -14 20 -33 20 -44 0 -10 9 -31 20
-48 11 -16 20 -40 20 -51 0 -12 9 -33 20 -47 11 -14 20 -33 20 -44 0 -10 9
-31 20 -48 11 -16 20 -39 20 -50 0 -11 9 -33 20 -50 11 -16 20 -39 20 -50 0
-11 9 -33 20 -50 11 -16 20 -39 20 -50 0 -11 9 -33 20 -50 11 -16 20 -41 20
-55 0 -14 9 -38 20 -55 11 -16 20 -42 20 -56 0 -15 9 -46 20 -70 17 -38 20
-66 20 -204 0 -143 -2 -163 -20 -190 -11 -16 -20 -40 -20 -52 0 -27 -102 -157
-162 -206 -53 -44 -132 -87 -157 -87 -11 0 -38 -9 -62 -20 -43 -19 -74 -20
-2249 -20 -2175 0 -2206 1 -2249 20 -24 11 -56 20 -71 20 -15 0 -33 7 -40 14
-6 8 -32 25 -58 37 -59 29 -152 122 -181 181 -12 26 -29 52 -37 58 -7 7 -14
26 -14 42 0 16 -9 46 -20 68 -17 33 -20 59 -20 174 0 112 3 144 20 186 11 28
20 70 20 93 0 23 9 59 20 80 11 20 20 54 20 74 0 21 9 52 20 68 11 17 20 44
20 61 0 17 9 43 20 57 11 14 20 35 20 47 0 11 9 38 19 58 11 20 33 66 50 102
52 108 139 271 155 289 9 10 16 22 16 27 0 6 18 35 40 64 22 29 40 58 40 63 0
5 17 30 38 56 21 25 50 65 64 87 15 23 48 65 75 94 26 29 65 75 86 104 62 84
274 292 399 393 65 52 120 98 123 103 6 9 99 74 196 136 27 17 57 38 67 47 10
9 24 17 31 17 7 0 24 9 38 20 14 11 32 20 40 20 8 0 26 9 40 20 14 11 38 20
52 20 15 0 37 7 50 16 21 15 168 38 231 37 77 -3 167 -17 181 -30 9 -8 32 -18
50 -24 54 -15 186 -148 217 -220 32 -72 62 -181 62 -224 -1 -22 -8 -58 -16
-80 -9 -22 -19 -58 -23 -81 -8 -44 -79 -158 -132 -212 -38 -38 -99 -80 -219
-148 -47 -26 -87 -51 -90 -54 -3 -3 -31 -21 -62 -40 -32 -19 -58 -37 -58 -41
0 -4 -24 -21 -53 -38 -29 -17 -69 -45 -88 -63 -19 -18 -81 -73 -137 -122 -57
-49 -138 -130 -180 -180 -42 -49 -89 -103 -105 -120 -16 -17 -41 -49 -55 -71
-15 -22 -44 -62 -64 -88 -21 -27 -38 -55 -38 -62 0 -8 -6 -20 -13 -27 -29 -31
-68 -101 -63 -114 6 -17 486 -18 2064 -7 1054 7 998 3 952 65 -11 15 -20 35
-20 45 0 10 -9 32 -20 48 -11 17 -20 37 -20 45 0 14 -19 58 -61 142 -11 20
-19 45 -19 55 0 10 -9 32 -20 48 -11 17 -20 39 -20 50 0 11 -9 31 -20 45 -11
14 -20 35 -20 46 0 12 -9 33 -20 47 -11 14 -20 33 -20 44 0 10 -9 32 -20 48
-11 17 -20 39 -20 50 0 11 -9 34 -20 50 -11 17 -20 37 -20 45 0 14 -19 58 -61
142 -11 20 -19 46 -19 56 0 11 -9 31 -20 45 -11 14 -20 33 -20 44 0 10 -9 32
-20 48 -11 17 -20 39 -20 50 0 11 -9 34 -20 50 -11 17 -20 38 -20 48 0 10 -9
36 -20 58 -11 21 -29 57 -40 78 -11 22 -20 49 -20 59 0 11 -9 31 -20 45 -11
14 -20 33 -20 44 0 10 -9 32 -20 48 -11 17 -20 40 -20 51 0 12 -9 33 -20 47
-11 14 -20 33 -20 44 0 10 -9 32 -20 48 -11 17 -20 39 -20 50 0 11 -9 34 -20
50 -11 17 -20 38 -20 48 0 11 -9 30 -20 44 -11 14 -20 35 -20 47 0 11 -9 35
-20 51 -11 17 -20 39 -20 50 0 11 -9 31 -20 45 -11 14 -20 36 -20 48 0 13 -9
35 -20 49 -11 14 -20 35 -20 47 0 11 -9 35 -20 51 -11 17 -20 38 -20 48 0 11
-9 30 -20 44 -11 14 -20 34 -20 45 0 10 -9 37 -20 59 -11 21 -29 57 -40 78
-11 22 -20 49 -20 59 0 11 -9 31 -20 45 -11 14 -20 33 -20 44 0 10 -9 32 -20
48 -11 17 -20 40 -20 51 0 12 -9 33 -20 47 -11 14 -20 36 -20 49 0 14 -13 37
-30 53 -28 27 -32 28 -102 22 -40 -4 -91 -13 -113 -21 -24 -9 -76 -15 -128
-16 -61 0 -105 -6 -144 -20 -36 -12 -83 -20 -126 -20 -48 0 -79 -6 -107 -20
-25 -13 -60 -20 -97 -20 -36 -1 -73 -8 -98 -20 -22 -11 -62 -19 -88 -20 -27 0
-64 -8 -87 -20 -22 -11 -55 -20 -75 -20 -20 0 -53 -9 -75 -20 -22 -11 -58 -20
-80 -20 -22 0 -58 -9 -80 -20 -22 -11 -54 -20 -72 -20 -18 0 -46 -9 -63 -20
-16 -11 -43 -20 -60 -20 -16 0 -43 -9 -60 -20 -16 -11 -43 -20 -60 -20 -16 0
-43 -9 -60 -20 -16 -11 -41 -20 -55 -20 -14 0 -38 -9 -55 -20 -16 -11 -41 -20
-55 -20 -14 0 -38 -9 -55 -20 -16 -11 -40 -20 -51 -20 -12 0 -33 -9 -47 -20
-14 -11 -35 -20 -47 -20 -11 0 -40 -10 -63 -21 -100 -51 -117 -59 -130 -59 -8
0 -26 -9 -40 -20 -14 -11 -33 -20 -42 -20 -9 0 -28 -9 -42 -20 -14 -11 -33
-20 -43 -20 -10 0 -29 -9 -43 -20 -14 -11 -30 -20 -36 -20 -12 0 -87 -39 -122
-63 -13 -10 -31 -17 -40 -17 -9 0 -24 -9 -34 -20 -10 -11 -26 -20 -35 -20 -9
0 -27 -9 -40 -20 -13 -11 -28 -20 -34 -20 -6 0 -38 -18 -71 -40 -33 -22 -65
-40 -71 -40 -6 0 -19 -9 -29 -20 -10 -11 -25 -20 -33 -20 -9 0 -24 -8 -34 -17
-17 -15 -43 -33 -162 -108 -26 -16 -73 -49 -103 -72 -31 -24 -60 -43 -66 -43
-5 0 -33 -20 -61 -43 -28 -24 -69 -56 -91 -70 -22 -14 -56 -40 -76 -59 -20
-18 -71 -60 -113 -93 -43 -33 -92 -73 -109 -89 -18 -15 -75 -66 -127 -111
-203 -178 -609 -604 -748 -785 -42 -55 -106 -138 -186 -240 -23 -30 -55 -76
-70 -102 -15 -27 -32 -48 -36 -48 -4 0 -20 -21 -35 -48 -15 -26 -36 -56 -45
-67 -10 -11 -30 -42 -44 -70 -15 -27 -30 -52 -34 -55 -5 -3 -23 -30 -40 -61
-18 -31 -39 -62 -47 -69 -8 -7 -15 -20 -15 -30 0 -10 -7 -23 -16 -30 -8 -8
-21 -27 -29 -44 -19 -42 -78 -148 -99 -177 -9 -13 -16 -31 -16 -40 0 -9 -9
-24 -20 -34 -11 -10 -20 -27 -20 -37 0 -11 -9 -31 -20 -45 -11 -14 -20 -31
-20 -38 0 -6 -9 -22 -20 -35 -11 -13 -20 -29 -20 -37 0 -12 -13 -31 -113 -164
-22 -29 -68 -69 -107 -95 -38 -24 -72 -49 -75 -54 -3 -6 -18 -10 -33 -10 -15
0 -40 -9 -57 -20 -21 -14 -47 -20 -85 -20 -31 0 -110 -7 -175 -15 -99 -12
-282 -15 -1030 -15 -500 0 -1155 5 -1455 10 -300 5 -1110 12 -1800 16 -1197 6
-1257 8 -1292 25 -21 11 -48 19 -61 19 -14 0 -30 7 -37 16 -8 8 -28 21 -46 29
-55 23 -146 126 -192 218 -23 45 -42 96 -42 113 0 16 -7 56 -15 87 -19 74 -19
155 0 200 8 20 15 58 15 84 0 32 7 56 20 73 11 14 20 38 20 53 0 16 9 40 20
54 11 14 20 34 20 44 0 10 21 58 46 106 26 48 55 105 66 125 11 20 26 42 34
49 8 6 14 18 14 25 0 7 18 37 40 66 22 29 40 57 40 61 0 5 19 33 43 62 23 30
58 75 77 102 58 80 420 436 485 477 33 21 79 56 102 77 24 22 47 39 53 39 6 0
33 18 61 40 28 22 56 40 62 40 6 0 20 9 31 19 23 21 108 70 172 100 23 11 45
24 48 30 4 6 17 11 30 11 13 0 31 9 41 20 10 11 26 20 35 20 10 0 29 9 43 20
14 11 33 20 44 20 10 0 32 9 48 20 17 11 41 20 55 20 36 0 52 14 48 41 -2 15
-15 30 -34 39 -17 8 -60 40 -95 71 -35 31 -84 70 -109 87 -25 17 -65 50 -90
74 -25 24 -85 77 -135 118 -153 127 -463 435 -615 610 -45 52 -110 125 -143
162 -33 37 -75 89 -93 115 -18 27 -49 66 -70 88 -20 22 -48 58 -63 80 -14 22
-43 63 -64 90 -48 63 -99 137 -135 194 -15 24 -37 55 -49 69 -13 14 -23 31
-23 38 0 7 -18 35 -40 63 -22 28 -40 57 -40 64 0 8 -9 22 -20 32 -11 10 -20
23 -20 29 0 6 -18 38 -40 71 -22 33 -40 67 -40 76 0 9 -9 24 -20 34 -11 10
-20 26 -20 35 0 9 -9 27 -20 40 -11 13 -20 31 -20 40 0 9 -9 25 -20 35 -11 10
-20 27 -20 37 0 11 -9 31 -20 45 -11 14 -20 32 -20 40 0 8 -9 26 -20 40 -11
14 -20 35 -20 45 0 11 -9 31 -20 45 -11 14 -20 33 -20 42 0 9 -9 30 -20 46
-11 17 -20 40 -20 51 0 12 -9 33 -20 47 -11 14 -20 36 -20 49 0 12 -9 37 -20
53 -11 17 -20 41 -20 55 0 14 -9 39 -20 55 -11 17 -20 41 -20 55 0 14 -9 39
-20 55 -11 17 -20 46 -20 65 0 19 -9 46 -20 60 -11 15 -20 41 -20 63 0 21 -9
55 -20 77 -11 22 -20 53 -20 70 0 17 -9 48 -20 70 -11 22 -20 59 -20 84 0 24
-9 63 -20 87 -11 26 -20 66 -20 97 0 29 -9 78 -20 109 -13 39 -20 83 -20 135
0 51 -6 92 -16 116 -12 27 -19 87 -24 222 -5 102 -14 228 -20 280 -13 101 -7
453 10 585 5 39 9 122 10 186 0 88 5 132 20 179 13 41 20 91 20 144 0 59 6 93
20 125 13 27 20 65 20 102 0 40 7 73 20 99 12 23 20 59 20 87 0 30 7 60 20 81
12 19 20 50 20 75 0 25 8 54 20 72 11 17 20 47 20 70 0 23 9 53 20 70 11 17
20 44 20 60 0 17 9 44 20 60 11 17 20 43 20 58 0 16 9 40 20 54 11 14 20 38
20 53 0 15 9 39 20 53 11 14 20 36 20 50 0 13 9 36 20 50 11 14 20 33 20 42 0
9 9 34 20 56 11 21 29 57 40 78 11 22 20 46 20 54 0 8 9 26 20 40 11 14 20 34
20 45 0 10 9 27 20 37 11 10 20 26 20 35 0 10 9 29 20 43 11 14 20 31 20 39 0
7 7 24 17 37 9 13 27 43 40 67 12 24 34 65 48 91 14 26 31 54 38 63 7 8 19 26
25 40 7 14 31 52 52 85 22 33 53 80 68 103 15 24 46 69 70 99 23 31 42 59 42
64 0 4 19 32 43 61 24 29 57 73 74 98 18 25 48 63 68 85 21 22 64 75 96 117
77 101 464 487 590 589 54 43 113 93 131 110 18 17 53 45 78 62 25 17 68 49
95 72 28 23 68 52 90 65 22 14 55 39 74 57 18 18 43 35 55 39 11 4 33 16 47
28 29 23 94 64 175 111 29 17 61 38 71 47 11 10 26 18 33 18 7 0 21 7 30 15
18 16 88 54 255 137 55 28 108 54 118 59 9 5 25 13 35 17 9 5 36 18 59 30 23
12 49 22 58 22 9 0 28 9 42 20 14 11 35 20 47 20 11 0 35 9 51 20 17 11 41 20
53 20 13 0 35 9 49 20 14 11 37 20 52 20 14 0 40 9 56 20 17 11 44 20 60 20
17 0 41 9 55 20 14 11 41 20 60 20 19 0 49 9 65 20 17 11 47 20 68 20 20 0 54
9 74 20 21 11 55 20 75 20 21 0 55 9 75 20 24 13 57 20 91 20 33 0 67 7 92 20
26 13 59 20 99 20 37 0 75 7 102 20 33 15 66 20 132 20 52 0 119 8 165 19 181
45 1084 45 1316 0 54 -10 132 -19 173 -19 49 0 85 -6 105 -16 17 -9 70 -20
117 -24 47 -4 100 -15 116 -24 17 -9 52 -16 78 -16 28 0 64 -8 87 -20 22 -11
59 -20 82 -20 26 0 55 -8 73 -20 19 -12 47 -20 75 -20 29 0 54 -7 70 -20 14
-11 40 -20 58 -20 19 0 45 -9 59 -20 14 -11 40 -20 58 -20 18 0 44 -9 58 -20
14 -11 38 -20 55 -20 16 0 41 -9 55 -20 14 -11 36 -20 49 -20 12 0 37 -9 53
-20 17 -11 40 -20 51 -20 12 0 33 -9 47 -20 14 -11 34 -20 45 -20 10 0 31 -9
45 -20 14 -11 34 -20 45 -20 10 0 27 -9 37 -20 10 -11 28 -20 40 -20 12 0 34
-9 48 -20 14 -11 32 -20 40 -20 7 0 22 -9 32 -20 10 -11 26 -20 35 -20 10 0
30 -10 45 -22 l27 -21 6395 6 c4081 3 6399 9 6405 15 6 6 9 765 8 2083 -1
1666 -3 2077 -14 2087 -10 10 -96 11 -442 2 -1037 -24 -2262 -32 -4154 -27
-1075 4 -3804 2 -6065 -2 -3671 -8 -4120 -10 -4205 -25 -52 -8 -134 -15 -182
-16 -63 0 -101 -6 -138 -20 -33 -13 -75 -20 -118 -20 -45 0 -81 -7 -111 -20
-24 -11 -61 -20 -82 -20 -22 0 -57 -9 -79 -20 -22 -11 -52 -20 -68 -20 -16 0
-41 -9 -55 -20 -14 -11 -36 -20 -50 -20 -13 0 -36 -9 -50 -20 -14 -11 -34 -20
-45 -20 -12 0 -23 -4 -26 -8 -3 -5 -39 -26 -80 -46 -41 -21 -80 -44 -87 -52
-6 -8 -18 -14 -26 -14 -9 0 -37 -18 -63 -40 -26 -22 -51 -40 -56 -40 -24 0
-245 -209 -368 -347 -94 -106 -150 -183 -244 -332 -15 -24 -37 -59 -49 -78
-13 -19 -23 -40 -23 -47 0 -7 -9 -21 -20 -31 -11 -10 -20 -26 -20 -35 0 -10
-9 -29 -20 -43 -11 -14 -20 -32 -20 -40 0 -8 -8 -25 -19 -38 -10 -13 -22 -35
-26 -49 -4 -14 -12 -30 -17 -37 -5 -6 -30 -51 -55 -100 -25 -48 -54 -97 -64
-109 -11 -11 -19 -28 -19 -36 0 -9 -6 -23 -14 -30 -7 -8 -23 -32 -34 -55 -12
-22 -33 -54 -47 -71 -14 -16 -25 -36 -25 -44 0 -8 -8 -22 -18 -31 -10 -9 -29
-38 -41 -64 -13 -27 -29 -52 -35 -58 -7 -5 -27 -36 -44 -67 -18 -31 -36 -58
-40 -60 -5 -2 -23 -29 -40 -60 -18 -31 -36 -58 -40 -60 -9 -4 -62 -75 -62 -83
0 -4 -17 -28 -38 -54 -21 -25 -46 -59 -57 -76 -10 -16 -37 -52 -60 -80 -22
-27 -53 -68 -68 -90 -14 -22 -47 -62 -72 -90 -25 -27 -70 -81 -99 -120 -30
-38 -94 -113 -144 -165 -49 -52 -102 -111 -118 -130 -132 -162 -645 -651 -818
-780 -38 -29 -83 -66 -100 -82 -17 -17 -43 -38 -58 -47 -25 -16 -85 -61 -243
-183 -41 -32 -79 -58 -84 -58 -5 0 -31 -17 -58 -38 -26 -21 -69 -51 -95 -66
-27 -15 -48 -32 -48 -37 0 -5 -15 -16 -32 -24 -47 -22 -75 -39 -96 -58 -10
-10 -23 -17 -29 -17 -6 0 -34 -18 -62 -40 -28 -22 -57 -40 -64 -40 -8 0 -20
-6 -26 -14 -7 -8 -36 -26 -66 -42 -30 -15 -62 -35 -71 -46 -10 -10 -25 -18
-34 -18 -9 0 -25 -9 -35 -20 -10 -11 -25 -20 -34 -20 -9 0 -43 -18 -76 -40
-33 -22 -63 -40 -68 -40 -5 0 -20 -9 -34 -20 -14 -11 -33 -20 -43 -20 -9 0
-25 -9 -35 -20 -10 -11 -25 -20 -32 -20 -8 0 -26 -9 -40 -20 -14 -11 -33 -20
-43 -20 -10 0 -29 -9 -43 -20 -14 -11 -30 -20 -37 -20 -7 0 -23 -9 -37 -20
-14 -11 -33 -20 -43 -20 -9 0 -25 -9 -35 -20 -10 -11 -28 -20 -40 -20 -12 0
-34 -9 -48 -20 -14 -11 -34 -20 -45 -20 -10 0 -27 -9 -37 -20 -10 -11 -28 -20
-39 -20 -12 0 -34 -9 -51 -20 -16 -11 -36 -20 -43 -20 -8 0 -25 -9 -39 -20
-14 -11 -36 -20 -48 -20 -12 0 -34 -9 -48 -20 -14 -11 -34 -20 -45 -20 -10 0
-31 -9 -45 -20 -14 -11 -33 -20 -44 -20 -10 0 -31 -9 -48 -20 -16 -11 -40 -20
-51 -20 -12 0 -33 -9 -47 -20 -14 -11 -36 -20 -49 -20 -12 0 -36 -9 -53 -20
-16 -11 -41 -20 -53 -20 -13 0 -35 -9 -49 -20 -14 -11 -37 -20 -52 -20 -14 0
-39 -9 -56 -20 -16 -11 -41 -20 -55 -20 -14 0 -38 -9 -55 -20 -16 -11 -43 -20
-60 -20 -16 0 -41 -9 -55 -20 -14 -11 -41 -20 -60 -20 -19 0 -48 -9 -65 -20
-16 -11 -43 -20 -60 -20 -16 0 -43 -9 -60 -20 -17 -11 -47 -20 -70 -20 -23 0
-53 -9 -70 -20 -17 -11 -47 -20 -70 -20 -22 0 -57 -9 -78 -20 -20 -11 -54 -20
-75 -20 -20 0 -54 -9 -75 -20 -21 -12 -56 -20 -82 -20 -25 0 -62 -8 -83 -19
-20 -10 -68 -21 -107 -24 -38 -2 -83 -12 -100 -21 -18 -9 -54 -16 -90 -16 -33
0 -89 -9 -123 -20 -42 -13 -92 -20 -146 -20 -46 0 -125 -9 -177 -20 -80 -17
-133 -20 -366 -20 -243 0 -278 2 -335 20 -34 11 -87 20 -116 20 -33 0 -66 7
-89 20 -21 11 -55 20 -76 20 -24 0 -49 8 -64 20 -14 11 -34 20 -44 20 -18 0
-160 71 -228 115 -45 28 -153 125 -206 183 -22 24 -52 58 -67 74 -15 17 -34
45 -42 63 -9 18 -22 38 -31 45 -8 7 -15 20 -15 30 0 9 -9 29 -20 43 -11 14
-20 33 -20 44 0 10 -9 32 -20 48 -11 17 -20 44 -20 60 0 17 -7 41 -17 54 -10
15 -19 57 -24 114 -11 134 5 127 -279 116 -129 -4 -302 -13 -385 -18 -178 -12
-1759 -13 -2325 -2 -288 6 -397 5 -402 -3 -4 -6 -8 -99 -8 -206 -1 -172 -3
-200 -20 -235 -11 -22 -20 -56 -20 -75 0 -19 -9 -48 -20 -65 -11 -16 -20 -39
-20 -50 0 -11 -7 -31 -17 -44 -9 -13 -27 -43 -39 -68 -34 -63 -116 -159 -192
-226 -65 -56 -147 -117 -158 -117 -3 0 -17 -9 -31 -20 -14 -11 -35 -20 -47
-20 -11 0 -32 -9 -46 -20 -14 -11 -41 -20 -60 -20 -19 0 -48 -9 -65 -20 -28
-18 -47 -20 -245 -20 -198 0 -217 2 -245 20 -16 11 -46 20 -65 20 -19 0 -46 9
-60 20 -14 11 -35 20 -46 20 -12 0 -33 9 -47 20 -14 11 -32 20 -40 20 -7 0
-22 9 -32 20 -10 11 -23 20 -29 20 -6 0 -34 17 -62 38 -82 60 -113 82 -119 82
-3 0 -28 18 -56 40 -28 22 -55 40 -61 40 -6 0 -32 18 -58 40 -26 22 -52 40
-58 40 -5 0 -34 19 -65 42 -30 24 -75 55 -99 70 -43 28 -126 85 -163 114 -20
15 -83 58 -163 111 -24 15 -65 45 -92 66 -27 20 -52 37 -54 37 -3 0 -25 14
-48 30 -24 17 -67 46 -96 66 -30 19 -59 39 -65 45 -7 5 -32 23 -57 39 -25 16
-65 44 -90 62 -26 18 -53 38 -61 43 -83 53 -189 128 -199 140 -7 8 -18 15 -24
15 -6 0 -33 17 -61 38 -27 20 -71 51 -97 67 -27 17 -48 33 -48 37 0 3 -21 19
-47 34 -27 15 -70 45 -96 66 -27 21 -53 38 -59 38 -6 0 -32 18 -58 40 -26 22
-52 40 -56 41 -5 0 -29 16 -54 34 -25 19 -68 48 -97 65 -28 17 -53 34 -55 39
-3 8 -61 48 -167 116 -26 17 -65 44 -87 61 -21 17 -50 37 -64 44 -14 7 -45 28
-70 47 -55 42 -128 91 -197 133 -29 17 -53 35 -53 40 0 4 -21 21 -47 36 -27
15 -70 45 -96 66 -27 21 -53 38 -58 38 -5 0 -32 18 -60 40 -28 22 -54 40 -59
40 -5 0 -30 17 -57 38 -26 21 -68 51 -93 66 -25 15 -74 49 -110 76 -36 27 -85
61 -110 76 -25 15 -66 44 -91 66 -26 21 -51 38 -57 38 -5 0 -34 19 -65 42 -30
24 -77 57 -103 73 -119 76 -143 94 -200 150 -32 33 -72 83 -88 110 -16 28 -37
61 -48 74 -10 13 -18 35 -18 48 0 14 -8 37 -19 51 -36 52 -34 400 2 440 9 10
17 30 17 44 0 14 9 35 20 48 11 13 20 29 20 36 0 35 242 283 276 284 7 0 36
19 67 43 30 23 75 54 99 69 23 16 70 46 103 68 33 22 80 52 104 68 24 15 51
34 60 42 9 8 39 30 66 47 28 18 59 40 70 49 31 24 115 79 175 115 30 18 57 36
60 40 3 3 30 23 60 42 30 20 74 50 98 67 23 16 45 30 48 30 2 0 27 18 55 40
28 22 55 40 60 40 5 0 32 18 60 40 28 22 54 40 59 40 5 0 31 18 59 40 28 22
55 40 60 40 5 0 32 18 60 40 28 22 54 40 58 40 4 0 34 19 65 43 58 43 132 91
177 116 14 7 45 29 68 47 23 19 46 34 51 34 5 0 34 19 65 43 30 23 75 54 99
69 23 16 68 45 99 65 31 21 78 52 105 70 27 17 57 39 67 48 17 15 84 61 176
120 26 17 69 47 95 68 27 20 53 37 58 37 5 0 31 18 59 40 28 22 55 40 61 40 6
0 32 18 58 40 26 22 52 40 56 41 5 0 29 16 54 34 25 19 69 48 98 65 28 17 52
35 52 39 0 4 26 22 58 41 31 19 59 38 62 42 7 9 79 58 86 58 3 0 24 15 47 34
23 18 53 39 67 46 14 7 43 27 64 44 22 17 61 45 86 61 94 60 165 109 178 122
7 7 34 25 59 40 25 14 59 39 76 55 18 15 41 31 52 34 11 4 41 24 66 45 26 22
50 39 53 39 3 0 28 16 55 35 27 19 65 41 84 49 19 7 38 19 41 25 4 6 17 11 29
11 12 0 36 9 52 20 17 11 43 20 58 20 15 0 46 9 68 21 38 19 55 20 252 17 182
-3 215 -5 237 -20 13 -10 41 -18 61 -18 21 0 47 -8 62 -20 14 -11 34 -20 45
-20 10 0 31 -9 45 -20 14 -11 32 -20 40 -20 9 0 19 -4 22 -10 3 -5 36 -29 73
-53 72 -47 165 -141 222 -222 41 -59 120 -214 120 -235 0 -8 9 -28 20 -45 13
-19 20 -47 20 -76 0 -26 7 -65 15 -88 8 -24 17 -101 21 -184 4 -93 11 -145 19
-152 8 -6 84 -8 216 -3 645 21 1194 28 2509 28 806 0 1584 5 1730 10 146 6
345 12 444 15 98 3 183 8 187 11 14 8 11 48 -6 87 -9 21 -15 67 -15 107 0 51
-6 82 -20 110 -11 22 -20 59 -20 82 0 25 -8 56 -20 76 -11 18 -20 47 -20 65 0
17 -9 43 -20 57 -11 14 -20 39 -20 56 0 18 -8 38 -20 49 -11 10 -20 27 -20 37
0 11 -9 36 -20 56 -11 20 -38 75 -61 122 -22 47 -47 92 -54 100 -7 8 -17 27
-20 43 -4 15 -13 31 -19 35 -7 4 -27 32 -45 62 -48 81 -96 152 -118 175 -11
11 -30 38 -43 60 -13 22 -44 64 -69 94 -25 29 -60 74 -78 99 -82 119 -744 783
-839 842 -16 9 -73 55 -126 101 -54 46 -145 120 -203 164 -57 44 -129 99 -159
123 -30 23 -57 42 -60 42 -7 0 -79 49 -86 58 -9 12 -89 62 -99 62 -6 0 -14 6
-18 13 -4 7 -29 25 -55 40 -26 15 -53 33 -60 40 -12 12 -95 63 -159 99 -17 9
-38 23 -48 32 -10 9 -22 16 -27 16 -5 0 -36 18 -69 40 -33 22 -67 40 -76 40
-9 0 -24 9 -34 20 -10 11 -26 20 -35 20 -10 0 -23 7 -30 16 -8 8 -27 21 -44
29 -17 8 -62 32 -101 55 -38 22 -81 45 -95 51 -54 24 -197 92 -232 110 -20 10
-44 19 -53 19 -9 0 -28 9 -42 20 -14 11 -35 20 -47 20 -11 0 -34 9 -51 20 -16
11 -39 20 -50 20 -11 0 -33 9 -50 20 -16 11 -43 20 -60 20 -16 0 -43 9 -60 20
-16 11 -46 20 -65 20 -19 0 -48 9 -65 20 -16 11 -46 20 -65 20 -19 0 -48 9
-65 20 -16 11 -43 20 -60 20 -16 0 -41 9 -55 20 -14 11 -38 20 -55 20 -16 0
-41 9 -55 20 -14 11 -34 20 -45 20 -11 0 -33 9 -50 20 -16 11 -38 20 -48 20
-11 0 -30 9 -44 20 -14 11 -33 20 -43 20 -10 0 -28 8 -41 18 -13 10 -53 33
-89 51 -36 17 -78 41 -95 52 -16 10 -43 26 -60 34 -46 24 -134 83 -238 162
-110 83 -387 356 -435 427 -17 27 -46 66 -63 85 -41 48 -91 124 -128 192 -16
30 -36 61 -45 68 -9 8 -16 22 -16 32 0 11 -9 27 -20 36 -11 10 -20 25 -20 34
0 9 -9 28 -20 42 -11 14 -20 32 -20 40 0 8 -9 26 -20 40 -11 14 -20 32 -20 40
0 8 -9 26 -20 40 -11 14 -20 33 -20 44 0 10 -9 32 -20 48 -11 17 -20 39 -20
50 0 11 -9 34 -20 50 -11 17 -20 41 -20 55 0 14 -9 39 -20 55 -11 17 -20 44
-20 60 0 17 -9 44 -20 60 -11 17 -20 47 -20 70 0 23 -9 53 -20 70 -12 18 -20
47 -20 73 0 23 -9 59 -20 79 -13 24 -20 57 -20 90 0 29 -9 75 -20 103 -12 30
-20 74 -20 108 0 32 -9 83 -20 115 -13 36 -20 82 -20 129 0 43 -8 102 -20 143
-13 45 -20 100 -20 155 0 47 -9 141 -20 210 -17 109 -20 176 -20 525 0 359 2
410 20 495 11 52 20 120 20 151 0 35 8 74 20 100 11 24 20 63 20 87 0 23 9 60
20 82 11 22 20 54 20 72 0 18 9 47 20 63 11 17 20 39 20 50 0 11 9 34 20 50
11 17 20 38 20 48 0 10 8 35 19 55 98 195 111 219 126 232 8 7 15 21 15 31 0
10 4 20 9 24 12 7 71 93 71 103 0 4 17 25 38 47 21 22 73 81 115 131 43 50
118 127 168 170 50 44 107 94 127 113 20 18 55 45 77 59 22 14 54 37 71 51 32
27 90 64 179 115 27 15 61 37 74 47 13 11 29 19 36 19 6 0 22 9 35 20 13 11
31 20 40 20 9 0 25 9 35 20 10 11 26 20 36 20 10 0 21 5 25 11 3 6 25 19 48
30 22 10 48 23 56 28 8 4 42 22 75 38 91 45 97 48 142 71 23 12 48 22 56 22 8
0 26 9 40 20 14 11 33 20 42 20 9 0 28 9 42 20 14 11 35 20 45 20 11 0 31 9
45 20 14 11 35 20 47 20 11 0 35 9 51 20 17 11 38 20 48 20 11 0 30 9 44 20
14 11 35 20 47 20 11 0 35 9 51 20 17 11 38 20 48 20 11 0 30 9 44 20 14 11
37 20 52 20 14 0 40 9 56 20 17 11 40 20 51 20 12 0 33 9 47 20 14 11 38 20
54 20 15 0 42 9 58 20 17 11 41 20 55 20 14 0 39 9 55 20 17 11 43 20 58 20
16 0 40 9 54 20 14 11 40 20 57 20 17 0 45 9 61 20 17 11 44 20 60 20 17 0 41
9 55 20 14 11 41 20 60 20 19 0 49 9 65 20 17 11 45 20 62 20 18 0 47 9 65 20
18 11 51 20 73 20 23 0 53 9 70 20 17 11 46 20 65 20 19 0 49 9 65 20 17 11
47 20 70 20 23 0 53 9 70 20 18 12 47 20 73 20 23 0 60 9 82 20 22 11 59 20
82 20 24 0 60 9 81 20 22 12 56 20 84 20 31 0 59 7 78 20 20 14 47 20 83 20
33 0 68 8 92 20 25 13 59 20 95 20 36 0 70 7 95 20 25 13 59 20 95 20 32 0 69
7 87 16 17 9 67 20 112 24 45 4 101 15 125 24 24 9 71 16 105 16 36 0 85 8
119 20 37 13 82 20 130 20 47 0 98 7 137 20 43 14 90 20 149 20 49 0 111 7
141 16 34 9 129 18 250 24 110 5 212 14 235 22 32 10 180 13 700 13 588 0 670
-2 749 -17 55 -11 135 -18 210 -18 90 0 142 -5 197 -20 47 -12 107 -20 164
-20 52 0 114 -7 145 -16 30 -8 98 -19 150 -23 52 -5 112 -16 132 -25 21 -9 61
-16 90 -16 l53 0 105 106 c58 58 125 120 150 137 25 17 69 50 98 74 29 24 59
43 66 43 7 0 20 8 30 18 9 11 41 31 71 46 30 16 59 34 66 42 6 8 21 14 34 14
12 0 30 9 40 20 10 11 28 20 40 20 12 0 30 9 40 20 10 11 28 20 39 20 12 0 35
9 51 20 17 11 41 20 55 20 14 0 39 9 55 20 17 11 44 20 60 20 17 0 44 9 60 20
17 11 46 20 66 20 20 0 56 9 80 20 29 13 66 20 109 20 36 0 92 9 125 20 52 16
91 19 305 19 216 1 253 -1 315 -19z"/>
<path d="M15911 33980 c-24 -11 -62 -20 -85 -20 -24 0 -53 -8 -71 -20 -16 -11
-44 -20 -61 -20 -18 0 -38 -8 -49 -20 -10 -11 -30 -20 -45 -20 -15 0 -35 -9
-45 -20 -10 -11 -26 -20 -36 -20 -10 0 -21 -5 -24 -10 -7 -11 -80 -61 -103
-70 -23 -10 -233 -204 -280 -260 -134 -158 -238 -260 -268 -260 -12 0 -33 -9
-47 -20 -24 -19 -40 -20 -279 -20 -186 1 -274 5 -333 16 -44 9 -145 19 -225
24 -80 4 -161 13 -180 20 -19 6 -111 15 -205 20 -93 5 -201 15 -240 23 -76 16
-555 32 -890 30 -348 -2 -766 -21 -835 -37 -36 -9 -105 -16 -155 -16 -56 0
-118 -8 -165 -20 -45 -12 -108 -20 -157 -20 -58 0 -97 -6 -133 -20 -34 -13
-74 -20 -120 -20 -46 0 -88 -7 -122 -20 -33 -12 -77 -20 -116 -20 -43 0 -75
-6 -102 -20 -26 -14 -59 -20 -100 -20 -41 0 -74 -6 -100 -20 -22 -11 -59 -20
-84 -20 -24 0 -63 -9 -87 -20 -24 -11 -65 -20 -92 -20 -28 0 -62 -8 -84 -20
-23 -12 -57 -20 -88 -20 -32 0 -62 -7 -83 -20 -19 -12 -50 -20 -75 -20 -25 0
-54 -8 -72 -20 -19 -12 -47 -20 -75 -20 -28 0 -56 -8 -75 -20 -17 -11 -47 -20
-70 -20 -23 0 -53 -9 -70 -20 -16 -11 -46 -20 -65 -20 -19 0 -48 -9 -65 -20
-16 -11 -46 -20 -65 -20 -19 0 -50 -9 -68 -20 -18 -11 -47 -20 -65 -20 -17 0
-45 -9 -62 -20 -16 -11 -43 -20 -60 -20 -16 0 -45 -9 -63 -20 -18 -11 -47 -20
-65 -20 -17 0 -43 -9 -57 -20 -14 -11 -38 -20 -55 -20 -16 0 -41 -9 -55 -20
-14 -11 -38 -20 -55 -20 -16 0 -41 -9 -55 -20 -14 -11 -38 -20 -55 -20 -16 0
-41 -9 -55 -20 -14 -11 -37 -20 -51 -20 -15 0 -38 -9 -52 -20 -14 -11 -33 -20
-44 -20 -10 0 -31 -9 -48 -20 -16 -11 -41 -20 -53 -20 -13 0 -35 -9 -49 -20
-14 -11 -35 -20 -47 -20 -11 0 -32 -9 -46 -20 -14 -11 -34 -20 -45 -20 -11 0
-33 -9 -50 -20 -16 -11 -39 -20 -51 -20 -11 0 -29 -9 -39 -20 -10 -11 -28 -20
-40 -20 -12 0 -34 -9 -48 -20 -14 -11 -31 -20 -39 -20 -7 0 -26 -9 -43 -20
-16 -11 -36 -20 -43 -20 -8 0 -25 -9 -39 -20 -14 -11 -32 -20 -40 -20 -8 0
-26 -9 -40 -20 -14 -11 -33 -20 -43 -20 -9 0 -25 -9 -35 -20 -10 -11 -26 -20
-35 -20 -9 0 -25 -9 -35 -20 -10 -11 -28 -20 -40 -20 -13 0 -28 -7 -35 -15 -7
-8 -25 -21 -41 -30 -16 -8 -42 -22 -58 -30 -16 -9 -34 -22 -41 -30 -7 -8 -18
-15 -25 -15 -7 0 -35 -17 -62 -38 -26 -20 -67 -50 -91 -65 -48 -31 -292 -272
-292 -289 0 -5 -9 -22 -19 -37 -37 -51 -101 -182 -101 -205 0 -13 -9 -35 -20
-49 -13 -16 -20 -40 -20 -66 0 -22 -8 -62 -19 -88 -19 -49 -35 -289 -34 -498
2 -225 22 -562 37 -609 9 -28 16 -86 16 -135 1 -59 7 -103 20 -141 11 -32 20
-83 20 -120 0 -42 7 -80 20 -109 11 -24 20 -63 20 -87 0 -25 9 -62 20 -84 11
-22 20 -59 20 -82 0 -26 8 -55 20 -73 11 -16 20 -46 20 -65 0 -19 9 -48 20
-65 11 -16 20 -41 20 -55 0 -23 15 -60 61 -152 11 -20 19 -44 19 -53 0 -9 9
-28 20 -42 11 -14 20 -32 20 -40 0 -8 9 -26 20 -40 11 -14 20 -33 20 -43 0 -9
9 -25 20 -35 11 -10 20 -25 20 -32 0 -8 15 -33 34 -56 18 -23 41 -57 50 -75
10 -18 79 -95 154 -170 123 -123 226 -207 312 -253 16 -9 36 -22 44 -28 22
-18 187 -101 201 -101 7 0 24 -9 38 -20 14 -11 33 -20 44 -20 10 0 32 -9 48
-20 17 -11 42 -20 56 -20 15 0 38 -9 52 -20 14 -11 40 -20 59 -20 18 0 47 -9
63 -20 17 -11 46 -20 65 -20 19 0 50 -9 68 -20 18 -11 45 -20 60 -20 15 0 41
-9 57 -20 17 -11 39 -20 50 -20 11 0 34 -9 50 -20 17 -11 42 -20 56 -20 14 0
34 -9 44 -20 10 -11 28 -20 39 -20 12 0 35 -9 51 -20 17 -11 38 -20 48 -20 11
0 30 -9 44 -20 14 -11 36 -20 48 -20 12 0 30 -9 40 -20 10 -11 28 -20 40 -20
12 0 32 -9 45 -20 13 -11 31 -20 40 -20 10 0 29 -9 43 -20 14 -11 34 -20 45
-20 10 0 27 -9 37 -20 10 -11 26 -20 35 -20 10 0 29 -9 43 -20 14 -11 32 -20
40 -20 9 0 19 -5 23 -11 3 -6 25 -19 49 -29 24 -10 46 -23 49 -29 4 -6 15 -11
25 -11 10 0 23 -6 29 -13 6 -6 40 -27 76 -46 36 -18 71 -40 77 -47 6 -8 19
-14 29 -14 10 0 23 -7 30 -15 7 -8 26 -22 44 -31 17 -9 43 -23 57 -30 15 -8
32 -21 39 -29 7 -8 18 -15 24 -15 7 0 37 -18 66 -40 29 -22 58 -40 63 -40 5 0
22 -10 37 -22 15 -13 47 -35 71 -50 61 -39 148 -97 202 -135 25 -18 49 -33 54
-33 4 0 26 -16 47 -36 21 -20 57 -47 80 -62 23 -14 64 -45 91 -67 28 -23 66
-52 85 -65 19 -13 58 -44 85 -68 28 -25 71 -59 96 -76 26 -17 89 -70 140 -117
52 -48 135 -119 184 -160 98 -79 558 -538 621 -620 22 -28 75 -92 119 -144
124 -146 201 -250 301 -406 17 -27 38 -57 47 -67 9 -10 17 -23 17 -29 0 -6 16
-30 34 -55 19 -25 38 -57 41 -71 4 -15 14 -32 22 -38 8 -7 21 -26 29 -43 8
-17 37 -73 64 -125 28 -51 50 -99 50 -106 0 -7 9 -24 20 -38 11 -14 20 -34 20
-45 0 -10 9 -31 20 -45 11 -14 20 -33 20 -44 0 -10 9 -31 20 -48 11 -16 20
-41 20 -55 0 -14 9 -38 20 -55 11 -16 20 -43 20 -60 0 -16 9 -43 20 -60 11
-16 20 -44 20 -60 0 -17 9 -47 20 -68 11 -20 20 -52 20 -71 0 -19 9 -53 20
-77 11 -26 20 -66 20 -97 0 -30 7 -67 17 -85 11 -20 19 -69 24 -132 4 -55 14
-131 23 -170 13 -58 16 -139 16 -461 0 -347 -2 -405 -20 -505 -11 -63 -20
-149 -20 -192 0 -52 -7 -96 -20 -134 -12 -36 -20 -84 -20 -128 -1 -48 -7 -82
-20 -110 -11 -24 -19 -62 -20 -93 0 -32 -8 -68 -20 -92 -11 -22 -20 -58 -20
-80 0 -22 -9 -58 -20 -80 -11 -22 -20 -56 -20 -77 0 -21 -9 -51 -20 -68 -11
-16 -20 -46 -20 -65 0 -19 -9 -48 -20 -65 -11 -16 -20 -46 -20 -65 0 -19 -9
-48 -20 -65 -11 -16 -20 -41 -20 -55 0 -14 -9 -38 -20 -55 -11 -16 -20 -41
-20 -55 0 -14 -9 -38 -20 -55 -11 -16 -20 -40 -20 -52 0 -13 -9 -37 -20 -55
-11 -18 -20 -42 -20 -53 0 -11 -9 -31 -20 -45 -11 -14 -20 -35 -20 -46 0 -12
-9 -33 -20 -47 -11 -14 -20 -33 -20 -42 0 -9 -8 -33 -19 -53 -17 -34 -43 -90
-70 -152 -6 -14 -15 -32 -19 -40 -12 -20 -30 -55 -96 -185 -31 -60 -74 -141
-96 -180 -22 -38 -47 -85 -56 -104 -8 -19 -22 -40 -30 -48 -8 -8 -14 -22 -14
-32 0 -10 -9 -26 -20 -36 -11 -10 -20 -22 -20 -27 0 -11 -91 -169 -107 -186
-6 -6 -15 -22 -19 -35 -4 -12 -22 -42 -40 -66 -19 -24 -34 -50 -34 -57 0 -7
-9 -21 -19 -31 -11 -10 -31 -40 -45 -68 -15 -27 -30 -52 -34 -55 -5 -3 -21
-27 -36 -55 -16 -27 -36 -58 -44 -68 -9 -9 -29 -39 -46 -66 -56 -88 -109 -166
-116 -171 -4 -3 -25 -31 -46 -64 -22 -32 -51 -77 -66 -100 -15 -22 -28 -46
-28 -52 0 -6 -9 -19 -19 -28 -25 -23 -37 -108 -22 -164 20 -72 21 -72 327 -72
238 0 281 2 350 20 44 11 111 20 149 20 45 0 92 7 128 20 32 12 82 20 117 20
41 0 74 7 100 20 24 12 59 20 92 20 36 0 63 6 83 20 18 12 47 20 73 20 23 0
60 9 82 20 22 11 53 20 70 20 17 0 48 9 70 20 22 11 54 20 72 20 18 0 47 9 63
20 17 11 44 20 60 20 17 0 44 9 60 20 17 11 44 20 60 20 17 0 44 9 60 20 17
11 44 20 60 20 17 0 44 9 60 20 17 11 41 20 53 20 13 0 35 9 49 20 14 11 37
20 52 20 14 0 40 9 56 20 17 11 39 20 50 20 11 0 34 9 50 20 17 11 39 20 50
20 11 0 34 9 50 20 17 11 40 20 51 20 12 0 33 9 47 20 14 11 34 20 45 20 10 0
31 9 45 20 14 11 33 20 44 20 10 0 32 9 48 20 17 11 37 20 46 20 9 0 28 9 42
20 14 11 33 20 42 20 9 0 28 9 42 20 14 11 32 20 40 20 8 0 26 9 40 20 14 11
36 20 48 20 12 0 30 9 40 20 10 11 28 20 40 20 12 0 30 9 40 20 10 11 28 20
40 20 12 0 30 9 40 20 10 11 25 20 32 20 8 0 26 9 40 20 14 11 33 20 43 20 9
0 25 9 35 20 10 11 24 20 32 20 8 0 26 8 41 18 46 30 66 42 98 57 17 7 36 21
44 29 7 9 20 16 30 16 9 0 25 9 35 20 10 11 26 20 35 20 9 0 38 16 63 35 25
19 56 40 69 45 13 5 34 18 48 29 24 18 213 145 248 166 47 28 81 52 122 86 25
20 64 49 86 65 92 64 241 180 279 217 22 21 83 73 135 115 114 93 542 519 630
628 35 44 94 113 130 154 36 41 90 108 120 148 30 39 57 72 61 72 4 0 27 30
52 68 24 37 58 83 75 102 17 19 37 46 44 60 7 14 27 43 44 65 18 22 62 85 97
140 36 55 75 112 86 127 12 14 21 31 21 38 0 6 13 28 30 48 16 20 36 53 44 73
8 19 22 41 30 49 9 7 16 20 16 30 0 10 6 23 14 29 7 6 35 53 61 104 82 157 95
181 110 197 8 9 15 23 15 32 0 8 9 25 20 38 11 13 20 31 20 40 0 10 7 23 16
31 9 7 30 39 47 72 54 99 65 118 80 135 8 9 24 35 35 57 11 22 30 51 42 65 12
14 30 41 40 60 10 19 32 50 49 69 16 18 37 47 45 65 8 17 32 49 52 71 20 22
62 74 92 115 55 74 425 450 442 450 5 0 44 28 87 63 43 35 96 74 118 86 22 13
45 29 50 36 6 6 35 25 66 43 31 18 62 39 69 47 7 8 19 15 28 15 8 0 23 7 32
15 23 21 269 145 288 145 7 0 25 9 39 20 14 11 36 20 48 20 12 0 34 9 48 20
14 11 38 20 55 20 16 0 41 9 55 20 15 12 40 20 64 20 21 0 51 9 68 20 19 12
47 20 75 20 28 0 56 8 75 20 19 13 47 20 77 20 26 0 70 9 98 20 30 12 74 20
109 20 32 0 80 7 107 16 28 10 105 20 179 24 72 4 171 14 220 23 80 14 310 16
2050 21 1143 3 2104 9 2305 16 190 6 536 15 769 18 316 5 425 10 428 19 3 7
-13 31 -35 55 -22 24 -51 61 -64 83 -14 22 -46 63 -72 90 -25 28 -46 53 -46
57 0 3 -38 54 -85 113 -47 58 -85 109 -85 114 0 4 -18 25 -39 48 -22 22 -57
66 -78 96 -21 30 -65 85 -98 122 -33 38 -68 82 -79 99 -10 17 -40 56 -66 86
-25 30 -65 80 -87 110 -23 30 -62 78 -88 105 -26 28 -64 75 -85 105 -21 30
-61 80 -90 110 -28 30 -70 80 -93 111 -23 31 -76 94 -119 140 -42 46 -96 110
-120 141 -25 32 -84 100 -133 153 -48 52 -95 105 -103 117 -20 29 -69 84 -207
233 -62 66 -177 192 -256 280 -79 88 -413 430 -744 761 -547 547 -665 662
-895 866 -41 36 -109 99 -150 138 -41 40 -124 114 -185 165 -60 50 -146 125
-190 167 -44 41 -100 89 -125 107 -25 18 -87 71 -139 119 -51 48 -114 101
-140 118 -25 18 -73 57 -106 88 -33 32 -77 69 -98 82 -21 14 -71 53 -110 87
-40 35 -88 73 -107 87 -19 13 -60 45 -90 70 -30 26 -80 64 -110 85 -30 21 -70
54 -90 72 -19 19 -48 41 -65 48 -16 7 -43 26 -59 42 -17 15 -62 51 -102 78
-101 71 -147 104 -207 151 -29 22 -70 52 -93 67 -22 14 -56 39 -75 56 -18 17
-43 34 -54 37 -11 4 -41 24 -66 45 -26 22 -49 39 -52 39 -6 0 -68 42 -151 102
-28 21 -71 50 -94 65 -24 15 -69 47 -99 71 -31 23 -60 42 -65 42 -6 0 -32 18
-58 40 -26 22 -52 40 -58 40 -6 0 -32 17 -59 38 -26 21 -66 49 -88 62 -22 13
-52 33 -66 44 -14 12 -48 35 -74 51 -27 17 -56 35 -64 40 -9 6 -35 23 -58 37
-23 15 -44 32 -48 38 -3 5 -14 10 -24 10 -10 0 -24 7 -31 15 -7 8 -38 29 -69
47 -31 18 -65 40 -75 50 -11 10 -39 27 -62 39 -23 11 -48 27 -54 35 -7 7 -18
14 -24 14 -7 0 -37 18 -66 40 -29 22 -59 40 -66 40 -6 0 -17 6 -23 14 -7 8
-36 26 -66 42 -30 15 -62 35 -71 46 -10 10 -25 18 -34 18 -10 0 -24 7 -31 16
-7 9 -22 20 -34 25 -11 5 -38 20 -60 34 -22 14 -55 32 -74 41 -19 8 -40 22
-48 30 -8 8 -23 14 -32 14 -10 0 -24 7 -31 16 -8 8 -27 21 -44 29 -42 19 -148
78 -177 99 -13 9 -31 16 -40 16 -9 0 -24 9 -34 20 -10 11 -25 20 -32 20 -8 0
-26 9 -40 20 -14 11 -33 20 -43 20 -9 0 -25 9 -35 20 -10 11 -26 20 -35 20
-10 0 -29 9 -43 20 -14 11 -29 20 -34 20 -5 0 -35 18 -68 40 -33 22 -64 40
-69 40 -22 0 -106 85 -129 130 -23 45 -27 64 -27 138 0 70 4 93 20 117 11 17
20 41 20 55 0 14 9 39 20 55 11 17 20 43 20 58 0 15 9 45 20 67 11 22 20 59
20 83 0 25 9 73 20 107 15 47 20 90 20 171 0 85 -4 119 -20 159 -11 28 -20 68
-20 90 0 22 -9 54 -20 72 -11 18 -20 42 -20 54 0 12 -9 31 -20 44 -11 13 -20
31 -20 40 0 9 -9 28 -21 41 -12 13 -30 42 -41 63 -34 66 -222 246 -328 315
-52 33 -102 61 -110 61 -8 0 -26 9 -40 20 -14 11 -36 20 -50 20 -14 0 -38 9
-55 20 -17 11 -47 20 -68 20 -21 0 -63 9 -94 20 -50 17 -83 20 -248 20 -168 0
-195 -3 -234 -20z m-4151 -2480 c22 -11 50 -20 63 -20 13 0 35 -8 48 -17 24
-18 55 -36 94 -57 36 -19 155 -147 177 -189 11 -23 28 -53 38 -67 10 -14 20
-41 23 -60 3 -19 12 -53 21 -75 23 -61 21 -205 -4 -255 -11 -22 -20 -52 -20
-68 0 -16 -8 -37 -19 -46 -10 -9 -21 -31 -25 -47 -4 -21 -38 -63 -110 -135
-57 -57 -109 -104 -116 -104 -6 0 -23 -9 -37 -20 -14 -11 -33 -20 -43 -20 -10
0 -29 -9 -43 -20 -15 -12 -40 -20 -63 -20 -21 0 -64 -7 -95 -16 -49 -14 -67
-15 -121 -4 -35 7 -85 15 -113 19 -27 4 -66 16 -85 26 -19 10 -44 23 -55 28
-49 25 -64 35 -127 85 -37 29 -76 68 -87 85 -11 18 -29 44 -41 56 -11 13 -20
30 -20 36 0 7 -9 24 -20 38 -11 14 -20 37 -20 51 0 14 -9 43 -20 63 -16 31
-20 57 -20 146 0 88 4 115 20 147 11 22 20 50 20 62 0 13 8 35 17 48 10 14 25
39 33 56 9 17 34 52 56 78 42 52 168 156 188 156 7 0 21 9 31 20 10 11 31 20
47 20 15 0 45 9 65 20 33 17 57 20 181 20 123 0 148 -3 182 -20z"/>
<path d="M5375 22845 c-55 -41 -122 -88 -150 -105 -27 -17 -90 -60 -140 -95
-49 -36 -103 -72 -120 -81 -16 -9 -48 -31 -70 -48 -22 -18 -57 -42 -78 -55
-21 -13 -45 -30 -54 -39 -15 -16 -44 -35 -157 -107 -26 -16 -73 -49 -103 -72
-31 -24 -59 -43 -63 -43 -5 0 -31 -18 -59 -40 -28 -22 -55 -40 -60 -40 -5 0
-31 -17 -58 -38 -26 -21 -68 -51 -93 -66 -25 -15 -72 -47 -105 -72 -33 -24
-80 -57 -104 -72 -24 -15 -56 -36 -70 -48 -14 -11 -44 -31 -66 -44 -22 -13
-62 -41 -88 -62 -27 -21 -53 -38 -59 -38 -6 0 -32 -18 -58 -40 -26 -22 -52
-40 -58 -40 -6 0 -33 -18 -61 -40 -28 -22 -55 -40 -60 -40 -5 0 -33 -19 -64
-42 -30 -24 -75 -55 -99 -70 -23 -16 -68 -45 -99 -65 -31 -21 -78 -52 -105
-70 -58 -37 -99 -66 -162 -113 -26 -20 -59 -41 -73 -47 -15 -6 -42 -25 -60
-41 -19 -16 -56 -42 -84 -58 -27 -15 -56 -34 -63 -41 -7 -7 -17 -13 -22 -13
-4 0 -30 -17 -57 -38 -26 -21 -70 -51 -98 -67 -27 -16 -52 -32 -55 -35 -3 -4
-31 -21 -62 -39 -32 -18 -58 -36 -58 -41 0 -4 -21 -18 -46 -30 -25 -12 -57
-32 -72 -44 -15 -12 -44 -33 -65 -45 -21 -13 -43 -28 -50 -35 -6 -7 -37 -26
-68 -44 -31 -18 -62 -39 -69 -47 -7 -8 -21 -15 -31 -15 -10 0 -21 -5 -24 -10
-10 -16 22 -59 51 -70 14 -6 42 -22 61 -38 20 -15 51 -36 69 -47 18 -11 70
-46 116 -78 132 -91 177 -121 246 -165 24 -15 69 -46 99 -69 31 -24 59 -43 63
-43 5 0 31 -18 59 -40 28 -22 54 -40 58 -40 4 0 32 -18 61 -40 29 -22 54 -40
57 -40 6 0 79 -50 85 -58 3 -4 30 -23 60 -42 30 -19 60 -40 65 -46 6 -6 28
-22 50 -35 22 -13 62 -40 88 -61 27 -21 53 -38 59 -38 6 0 32 -18 58 -40 26
-22 52 -40 58 -40 6 0 32 -17 59 -37 40 -32 185 -131 244 -168 22 -14 89 -62
155 -112 31 -24 61 -43 66 -43 6 0 31 -17 57 -38 25 -21 67 -51 93 -68 27 -16
48 -32 48 -36 0 -3 21 -19 48 -34 26 -15 67 -43 92 -61 49 -37 114 -82 199
-139 30 -20 60 -42 67 -49 8 -7 30 -23 51 -36 21 -12 59 -40 84 -61 26 -21 49
-38 52 -38 6 0 47 -28 152 -105 33 -24 80 -57 103 -72 24 -15 67 -46 96 -69
28 -22 65 -49 81 -60 17 -10 53 -36 80 -56 28 -21 54 -38 59 -38 4 0 30 -18
56 -40 26 -22 52 -40 58 -40 6 0 45 -27 87 -61 42 -33 84 -59 93 -57 16 3 17
37 19 397 2 375 3 394 23 426 11 18 20 44 20 57 0 14 9 33 19 42 11 10 22 28
25 41 6 25 141 155 161 155 6 0 20 9 30 20 10 11 29 20 43 20 13 0 39 9 56 19
30 19 85 19 1881 24 1758 5 2586 17 2640 37 15 6 25 18 25 28 0 11 9 31 20 45
11 14 20 28 20 31 0 8 92 169 100 176 4 3 21 30 38 61 18 31 39 62 47 69 8 7
15 18 15 25 0 7 15 32 33 56 34 45 53 77 82 138 9 19 32 55 51 79 19 25 34 50
34 57 0 7 9 22 20 35 11 13 20 31 20 40 0 10 7 23 16 30 8 8 21 27 29 44 8 17
32 63 55 101 22 39 45 81 51 95 6 14 15 32 20 40 5 8 14 26 20 40 6 14 15 32
20 40 5 8 14 26 21 40 45 100 93 201 109 232 10 20 19 44 19 53 0 9 9 28 20
42 11 14 20 35 20 47 0 11 9 35 20 51 11 17 20 39 20 50 0 11 9 34 20 50 11
17 20 41 20 55 0 14 9 39 20 55 11 17 20 44 20 60 0 17 9 44 20 60 11 17 20
46 20 65 0 19 9 49 20 65 11 17 20 47 20 70 0 22 9 57 20 78 11 21 20 56 20
81 0 24 9 63 20 87 22 50 26 122 8 135 -7 5 -315 7 -698 4 -377 -3 -1637 -6
-2800 -8 -2103 -2 -2115 -2 -2152 18 -21 11 -46 20 -57 20 -10 0 -30 9 -44 20
-14 11 -32 20 -41 20 -21 0 -196 175 -196 196 0 9 -9 27 -20 41 -11 14 -20 38
-20 52 0 15 -8 38 -17 51 -16 22 -19 63 -23 380 -5 346 -6 355 -25 357 -11 1
-63 -30 -120 -72z"/>
<path d="M24705 17869 c-104 -5 -222 -6 -262 -3 -40 3 -77 3 -83 -1 -16 -10 6
-42 48 -69 20 -13 62 -47 92 -75 30 -29 107 -95 170 -149 63 -53 140 -120 170
-148 30 -29 87 -78 125 -109 39 -31 102 -87 140 -123 39 -37 135 -126 215
-197 151 -135 212 -192 414 -386 67 -63 200 -189 296 -280 267 -250 381 -362
1079 -1060 735 -735 885 -888 1311 -1334 450 -470 1836 -1854 2066 -2061 109
-98 242 -219 295 -269 125 -118 382 -343 484 -425 44 -36 99 -84 121 -106 23
-23 68 -61 100 -85 33 -24 93 -73 134 -109 41 -36 100 -84 130 -106 30 -23 77
-62 105 -87 27 -26 53 -47 56 -47 4 0 53 -36 109 -80 56 -44 105 -80 109 -80
4 0 25 -17 46 -37 22 -21 73 -60 113 -87 39 -26 72 -52 72 -56 0 -5 21 -21 48
-36 26 -15 81 -54 122 -86 103 -79 119 -91 165 -118 22 -13 62 -41 88 -62 27
-21 53 -38 58 -38 5 0 32 -18 60 -40 28 -22 55 -40 60 -40 5 0 32 -18 60 -40
28 -22 57 -40 64 -40 7 0 18 -7 25 -15 6 -7 37 -28 68 -46 30 -17 62 -37 70
-45 7 -8 19 -14 25 -14 7 0 39 -18 72 -40 33 -22 65 -40 71 -40 6 0 19 -9 29
-20 10 -11 25 -20 33 -20 9 0 23 -7 32 -15 10 -9 46 -31 81 -49 80 -41 108
-56 138 -79 13 -9 30 -17 38 -17 8 0 26 -9 40 -20 14 -11 32 -20 40 -20 8 0
26 -9 40 -20 14 -11 33 -20 43 -20 9 0 25 -9 35 -20 10 -11 27 -20 37 -20 11
0 31 -9 45 -20 14 -11 32 -20 40 -20 8 0 32 -9 54 -20 21 -11 57 -29 78 -40
22 -11 47 -20 56 -20 9 0 28 -9 42 -20 14 -11 35 -20 47 -20 11 0 35 -9 51
-20 17 -11 39 -20 50 -20 11 0 34 -9 50 -20 17 -11 41 -20 55 -20 14 0 39 -9
55 -20 17 -11 41 -20 55 -20 14 0 40 -9 58 -20 18 -11 45 -20 60 -20 15 0 41
-9 57 -20 17 -11 47 -20 70 -20 23 0 53 -9 70 -20 18 -12 47 -20 73 -20 23 0
60 -9 82 -20 23 -12 59 -20 87 -20 26 0 68 -9 92 -20 26 -12 65 -20 100 -20
31 0 85 -9 119 -20 40 -12 92 -20 138 -20 40 0 124 -8 186 -17 163 -25 572
-25 682 0 43 9 119 17 171 17 65 0 111 6 155 20 34 11 89 20 121 20 35 0 79 8
109 20 28 11 71 20 96 20 25 0 62 9 84 20 22 11 56 20 77 20 21 0 51 9 68 20
17 11 47 20 67 20 21 0 52 9 70 20 18 11 46 20 61 20 16 0 40 9 54 20 14 11
40 20 58 20 18 0 44 9 58 20 14 11 36 20 49 20 12 0 37 9 53 20 17 11 40 20
51 20 12 0 33 9 47 20 14 11 34 20 45 20 10 0 31 9 45 20 14 11 34 20 45 20
12 0 23 4 26 8 3 5 57 35 121 67 63 32 118 62 121 66 3 5 20 16 37 24 32 15
102 59 192 123 25 17 48 32 51 32 2 0 53 39 112 86 280 224 485 473 641 779
28 56 51 106 51 112 0 6 7 16 15 23 8 7 15 24 15 37 0 14 9 36 20 50 12 15 20
41 20 62 0 20 8 48 17 61 10 14 21 52 24 85 3 33 13 87 22 120 14 47 17 106
17 291 0 204 -2 240 -20 296 -11 34 -20 88 -20 118 0 33 -8 73 -20 99 -11 24
-20 58 -20 77 0 19 -9 51 -20 71 -11 21 -20 50 -20 65 0 15 -9 42 -20 60 -11
18 -20 42 -20 53 0 11 -9 34 -20 50 -11 17 -20 39 -20 50 0 11 -9 34 -20 50
-11 17 -20 40 -20 51 0 12 -9 33 -20 47 -11 14 -20 33 -20 42 0 9 -9 28 -20
42 -11 14 -20 33 -20 43 0 9 -9 27 -20 40 -11 13 -20 30 -20 37 0 8 -9 26 -20
40 -11 14 -20 33 -20 43 0 9 -9 25 -20 35 -11 10 -20 23 -20 29 0 6 -15 34
-33 61 -18 28 -39 65 -46 83 -7 17 -17 32 -21 32 -5 0 -18 21 -31 46 -12 25
-34 59 -48 74 -14 15 -38 47 -53 71 -40 63 -120 175 -165 226 -21 25 -42 53
-47 62 -41 71 -574 612 -681 691 -33 24 -89 69 -125 100 -36 32 -92 77 -126
101 -117 85 -145 104 -200 147 -31 23 -62 42 -69 42 -7 0 -18 7 -25 15 -7 8
-35 29 -64 45 -28 17 -82 51 -121 75 -38 25 -89 53 -111 64 -23 11 -45 24 -48
30 -4 6 -14 11 -23 11 -8 0 -26 9 -40 20 -14 11 -33 20 -43 20 -9 0 -25 9 -35
20 -10 11 -25 20 -34 20 -9 0 -27 7 -40 17 -38 26 -111 63 -125 63 -7 0 -25 9
-39 20 -14 11 -34 20 -45 20 -10 0 -27 9 -37 20 -10 11 -30 20 -45 20 -15 0
-35 9 -45 20 -10 11 -28 20 -39 20 -12 0 -34 9 -51 20 -16 11 -42 20 -56 20
-14 0 -34 9 -44 20 -10 11 -30 20 -44 20 -14 0 -39 9 -56 20 -16 11 -41 20
-55 20 -14 0 -38 9 -55 20 -16 11 -43 20 -60 20 -16 0 -43 9 -60 20 -16 11
-43 20 -60 20 -16 0 -43 9 -60 20 -16 11 -46 20 -65 20 -19 0 -48 9 -65 20
-19 12 -47 20 -75 20 -28 0 -56 8 -75 20 -18 12 -47 20 -73 20 -23 0 -60 9
-82 20 -24 12 -59 20 -90 20 -31 0 -66 8 -90 20 -24 12 -59 20 -89 20 -28 0
-74 9 -103 20 -33 12 -78 20 -118 20 -37 0 -93 9 -128 20 -39 12 -92 20 -135
20 -40 0 -108 9 -152 20 -54 13 -114 20 -185 20 -57 0 -171 9 -253 21 -140 19
-182 20 -795 16 -454 -3 -662 -8 -697 -16 -27 -7 -135 -16 -240 -21 -115 -5
-212 -15 -245 -24 -31 -9 -93 -16 -145 -16 -60 0 -113 -7 -160 -20 -44 -13
-100 -20 -150 -20 -55 0 -99 -6 -138 -20 -35 -13 -82 -20 -126 -20 -47 0 -82
-6 -112 -20 -30 -13 -67 -20 -114 -20 -48 -1 -83 -7 -110 -20 -25 -12 -62 -19
-98 -20 -37 0 -72 -7 -97 -20 -22 -11 -59 -20 -84 -20 -25 0 -68 -9 -96 -20
-28 -11 -69 -20 -91 -20 -22 0 -57 -9 -79 -20 -22 -11 -59 -20 -85 -20 -26 0
-61 -8 -82 -20 -21 -11 -56 -20 -78 -20 -23 0 -53 -9 -70 -20 -19 -12 -47 -20
-75 -20 -29 0 -54 -7 -70 -20 -16 -12 -41 -20 -67 -20 -25 0 -56 -8 -75 -20
-18 -11 -47 -20 -65 -20 -17 0 -47 -8 -65 -19 -18 -10 -60 -21 -93 -24 -33 -3
-73 -12 -90 -21 -23 -12 -60 -16 -160 -16 -113 0 -134 3 -160 20 -16 11 -38
20 -47 20 -83 0 -318 236 -318 319 0 10 -9 38 -20 62 -19 43 -20 69 -20 874 0
760 -2 845 -20 1005 -11 96 -20 233 -20 303 0 79 -6 157 -16 205 -9 42 -19
111 -23 152 l-6 75 -2010 1 c-1105 0 -2095 -3 -2200 -7z"/>
</g>
</svg>
